<svg xmlns="http://www.w3.org/2000/svg" viewBox="0 0 441.46 212">
  <title>Asset 2</title>
  <g id="Layer_2" data-name="Layer 2">
    <g id="Layer_1-2" data-name="Layer 1">
      <g>
        <path d="M194.57,0h148c26.74,0,45.84,18.76,45.92,45.42q.18,60.51,0,121c-.07,26.7-19.13,45.56-45.8,45.56h-297C19.28,212,.15,193.14.08,166.8q-.16-60.74,0-121.49C.14,18.92,19.23,0,45.57,0Q120.07,0,194.57,0Zm.1,17.91q-74,0-148,0c-18.29,0-28.83,10.48-28.85,28.81q-.06,59.25,0,118.49c0,18.35,10.55,28.87,28.79,28.87H342.1c17.86,0,28.63-10.71,28.64-28.56q0-59.49,0-119c0-17.89-10.75-28.61-28.58-28.62Q268.4,17.89,194.67,17.91Z" style="fill: #fff"/>
        <path d="M406.42,63.18c19.22,2.36,35,21.82,35,42.8s-15.69,40.31-35,42.83Z" style="fill: #fff"/>
      </g>
    </g>
  </g>
</svg>
